{"title":"Kajarya (2015) 1080p Webrip x264 AC3 5.1 MSubs -DDR","uid":15795158,"size":2056409341,"categoryP":"video","categoryS":"hd___movies","magnet":"?xt=urn:btih:b5397f853578513d292ef1839ba4e0b2658e6887&amp;dn=Kajarya+%282015%29+1080p+Webrip+x264+AC3+5.1+MSubs+-DDR&amp;tr=udp%3A%2F%2Ftracker.leechers-paradise.org%3A6969&amp;tr=udp%3A%2F%2Fzer0day.ch%3A1337&amp;tr=udp%3A%2F%2Fopen.demonii.com%3A1337&amp;tr=udp%3A%2F%2Ftracker.coppersurfer.tk%3A6969&amp;tr=udp%3A%2F%2Fexodus.desync.com%3A6969","seeders":13,"leechers":19,"uploader":"SaM","files":3,"time":1473447671,"description":"Kajarya\r\n\r\n1080p Web Rip x264\r\n\r\nHindi DTS 5.1 Audio\r\n\r\n\r\n\r\nEnglish &amp; French Subtitles\r\n\r\nSynopsis:\r\nSet in the present times against two backdrops. New Delhi with its shining buildings and apparent cosmopolitan veneer, thinly veils an underbelly of crimes against women and corruption at all levels. And a small village just 80 kilometers from New Delhi that is stuck in a time warp. Kajarya a woman in her early thirties has a strange but important place in the village social structure; she murders unwanted girl infants in the garb of religion. Meera is a rookie reporter. She breezes into the village and the villagers feed her the story of Kajarya being a demonic baby killer. The story is juicy and one sided. Meera gets the front page of the newspaper. Kajarya goes to jail. \r\n \nhttp://extraimago.com/image/wmpA \nhttp://extraimago.com/image/wmpv \nhttp://extraimago.com/image/wmpu \nhttp://extraimago.com/image/wmpV \nhttp://extraimago.com/image/wmp6 \nhttp://extraimago.com/image/wmpx \nhttp://extraimago.com/image/wmpt \nhttp://extraimago.com/image/wmpo \nhttp://extraimago.com/image/wmpk \nhttp://extraimago.com/image/wmpH \nhttp://extraimago.com/image/wmpF \nhttp://extraimago.com/image/wmpD \nhttp://extraimago.com/image/wmp5\r\n\r\n\r\nSpecs:\r\nSource: Netflix Rip @ DDR\r\n\r\nFormat : Matroska\r\nFile size : 1.89 GiB\r\nDuration : 1 h 40 min\r\nOverall bit rate : 2 707 kb/s\r\nEncoded date : UTC 2016-09-08 17:47:46\r\nWriting application : mkvmerge v9.2.0 ('Photograph') 64bit\r\nWriting library : libebml v1.3.3 + libmatroska v1.4.4\r\n\r\nVideo\r\nID : 1\r\nFormat : AVC\r\nFormat/Info : Advanced Video Codec\r\nFormat profile :   \r\nFormat settings, CABAC : Yes\r\nFormat settings, ReFrames : 4 frames\r\nCodec ID : V_MPEG4/ISO/AVC\r\nDuration : 1 h 40 min\r\nBit rate : 2 065 kb/s\r\nWidth : 1 920 pixels\r\nHeight : 1 080 pixels\r\nDisplay aspect ratio : 16:9\r\nFrame rate mode : Constant\r\nFrame rate : 24.000 FPS\r\nColor space : YUV\r\nChroma subsampling : 4:2:0\r\nBit depth : 8 bits\r\nScan type : Progressive\r\nBits/(Pixel*Frame) : 0.041\r\nStream size : 1.44 GiB (76%)\r\nDefault : Yes\r\nForced : No\r\nColor range : Limited\r\nColor primaries : BT.709\r\nTransfer characteristics : BT.709\r\nMatrix coefficients : BT.709\r\n\r\nAudio\r\nID : 2\r\nFormat : AC-3\r\nFormat/Info : Audio Coding 3\r\nMode extension : CM (complete main)\r\nFormat settings, Endianness : Big\r\nCodec ID : A_AC3\r\nDuration : 1 h 40 min\r\nBit rate mode : Constant\r\nBit rate : 640 kb/s\r\nChannel(s) : 6 channels\r\nChannel positions : Front: L C R, Side: L R, LFE\r\nSampling rate : 48.0 kHz\r\nFrame rate : 31.250 FPS (1536 spf)\r\nCompression mode : Lossy\r\nDelay relative to video : 24 ms\r\nStream size : 458 MiB (24%)\r\nLanguage : Hindi\r\nDefault : Yes\r\nForced : No\r\n\r\nText #1\r\nID : 3\r\nFormat : UTF-8\r\nCodec ID : S_TEXT/UTF8\r\nCodec ID/Info : UTF-8 Plain Text\r\nDuration : 1 h 37 min\r\nBit rate : 49 b/s\r\nCount of elements : 1160\r\nStream size : 35.8 KiB (0%)\r\nLanguage : English\r\nDefault : Yes\r\nForced : No\r\n\r\nText #2\r\nID : 4\r\nFormat : UTF-8\r\nCodec ID : S_TEXT/UTF8\r\nCodec ID/Info : UTF-8 Plain Text\r\nDuration : 1 h 38 min\r\nBit rate : 51 b/s\r\nCount of elements : 1108\r\nStream size : 37.2 KiB (0%)\r\nLanguage : French\r\nDefault : No\r\nForced : No\r\n\r\n\r\nSAMPLE Included","torrent":{"xt":"urn:btih:b5397f853578513d292ef1839ba4e0b2658e6887","amp;dn":"Kajarya+%282015%29+1080p+Webrip+x264+AC3+5.1+MSubs+-DDR","amp;tr":["udp%3A%2F%2Ftracker.leechers-paradise.org%3A6969","udp%3A%2F%2Fzer0day.ch%3A1337","udp%3A%2F%2Fopen.demonii.com%3A1337","udp%3A%2F%2Ftracker.coppersurfer.tk%3A6969","udp%3A%2F%2Fexodus.desync.com%3A6969"],"infoHash":"b5397f853578513d292ef1839ba4e0b2658e6887","infoHashBuffer":{"type":"Buffer","data":[181,57,127,133,53,120,81,61,41,46,241,131,155,164,224,178,101,142,104,135]},"announce":[],"urlList":[]}}